<?xml version="1.0" encoding="iso-8859-1"?>
<!-- Generator: Adobe Illustrator 19.1.0, SVG Export Plug-In . SVG Version: 6.00 Build 0)  -->
<svg version="1.1" id="Capa_1" xmlns="http://www.w3.org/2000/svg" xmlns:xlink="http://www.w3.org/1999/xlink" x="0px" y="0px"
	 viewBox="0 0 64.501 64.501" style="enable-background:new 0 0 64.501 64.501;" xml:space="preserve">
<g>
	<g id="group-14svg">
		<path id="path-1_4_" style="fill:#E56A77;" d="M64.501,34.432c0,15.811-12.821,28.629-28.637,28.629
			c-15.815,0-28.636-12.818-28.636-28.629c0-15.812,12.821-28.63,28.636-28.63C51.68,5.802,64.501,18.62,64.501,34.432z"/>
		<path id="path-2_4_" d="M30.137,61.698C13.519,61.698,0,48.182,0,31.569S13.519,1.44,30.137,1.44
			c16.617,0,30.136,13.516,30.136,30.129S46.754,61.698,30.137,61.698z M30.137,4.439C15.174,4.439,3,16.61,3,31.569
			s12.174,27.129,27.137,27.129s27.136-12.17,27.136-27.129S45.1,4.439,30.137,4.439z"/>
		<path id="path-3_4_" d="M28.113,36.354c0.093,0.951,0.251,1.658,0.482,2.161c0.321,0.697,0.941,1.081,1.745,1.081
			c0.786,0,1.408-0.386,1.751-1.087c0.257-0.525,0.418-1.225,0.489-2.135l0.591-6.777c0.068-0.652,0.101-1.294,0.101-1.926
			c0-1.158-0.156-2.043-0.479-2.707c-0.28-0.573-0.906-1.257-2.288-1.257c-0.875,0-1.599,0.299-2.147,0.888
			c-0.539,0.573-0.813,1.354-0.813,2.319c0,0.57,0.041,1.509,0.126,2.82L28.113,36.354z"/>
		<path id="path-4_4_" d="M28.376,41.267c-0.543,0.541-0.831,1.235-0.831,2.007c0,0.874,0.311,1.604,0.898,2.116
			c0.564,0.486,1.229,0.733,1.979,0.733c0.746,0,1.408-0.251,1.967-0.749c0.579-0.513,0.883-1.239,0.883-2.1
			c0-0.776-0.294-1.473-0.846-2.011C31.307,40.167,29.469,40.172,28.376,41.267z"/>
	</g>
</g>
<g>
</g>
<g>
</g>
<g>
</g>
<g>
</g>
<g>
</g>
<g>
</g>
<g>
</g>
<g>
</g>
<g>
</g>
<g>
</g>
<g>
</g>
<g>
</g>
<g>
</g>
<g>
</g>
<g>
</g>
</svg>
