<?xml version="1.0" encoding="iso-8859-1"?>
<!-- Generator: Adobe Illustrator 19.0.0, SVG Export Plug-In . SVG Version: 6.00 Build 0)  -->
<svg version="1.1" id="Layer_1" xmlns="http://www.w3.org/2000/svg" xmlns:xlink="http://www.w3.org/1999/xlink" x="0px" y="0px"
	 viewBox="0 0 512 512" style="enable-background:new 0 0 512 512;" xml:space="preserve">
<path style="fill:#B04C5C;" d="M323.14,272.624c-4.017-4.723-10.592-4.723-14.608,0l-12.342,14.509
	c-4.017,4.723-2.23,8.587,3.969,8.587h31.352c6.199,0,7.987-3.864,3.969-8.587L323.14,272.624z"/>
<path style="fill:#D85C72;" d="M435.506,127.887c0-66.094-53.578-119.672-119.67-119.672S196.164,61.793,196.164,127.887
	c0,66.092,53.58,152.775,119.672,152.775S435.506,193.98,435.506,127.887z"/>
<circle style="fill:#DE6E7F;" cx="372.834" cy="84.153" r="33.911"/>
<path style="fill:#00948D;" d="M180.386,306.078c-4.019-4.724-10.592-4.724-14.609,0l-12.342,14.507
	c-4.017,4.723-2.23,8.587,3.971,8.587h31.352c6.199,0,7.986-3.864,3.968-8.587L180.386,306.078z"/>
<path style="fill:#00BCB4;" d="M292.751,161.341c0-66.094-53.577-119.672-119.671-119.672c-66.092,0-119.671,53.58-119.671,119.672
	s53.578,152.776,119.671,152.776C239.174,314.117,292.751,227.435,292.751,161.341z"/>
<circle style="fill:#1ACEC6;" cx="230.071" cy="117.615" r="33.911"/>
<path style="fill:#FFB819;" d="M346.222,356.3c-4.018-4.722-10.591-4.722-14.607,0l-12.342,14.509
	c-4.018,4.723-2.231,8.587,3.969,8.587h31.351c6.201,0,7.987-3.864,3.971-8.587L346.222,356.3z"/>
<path style="fill:#FFD26C;" d="M458.59,211.562c0-66.094-53.577-119.673-119.671-119.673c-66.091,0-119.671,53.58-119.671,119.673
	c0,66.092,53.58,152.775,119.671,152.775C405.012,364.338,458.59,277.656,458.59,211.562z"/>
<circle style="fill:#FFDA8A;" cx="395.912" cy="167.835" r="33.911"/>
<path style="fill:#022A3A;" d="M443.354,137.832c0.243-3.367,0.366-6.699,0.366-9.945C443.721,57.369,386.35,0,315.836,0
	c-36.59,0-70.94,15.425-95.218,42.525c-14.827-5.905-30.901-9.07-47.537-9.07c-70.516,0-127.886,57.37-127.886,127.887
	c0,34.682,13.686,74.303,36.61,105.988c18.433,25.477,40.351,42.732,63.54,50.432c-3.537,5.709-2.101,10.418-1.214,12.337
	c1.014,2.193,4.335,7.292,13.274,7.292h7.461v124.39h16.43v-124.39h7.46c8.938,0,12.259-5.099,13.272-7.29
	c0.891-1.923,2.329-6.65-1.242-12.379c11.907-3.979,23.546-10.496,34.596-19.414c3.719,6.65,7.814,13.098,12.261,19.245
	c17.487,24.169,38.109,40.93,59.977,49.162v61.613h16.43V387.61h6.653V512h16.43V387.61h7.46c8.938,0,12.26-5.099,13.273-7.29
	c0.887-1.918,2.324-6.627-1.212-12.338c23.189-7.699,45.107-24.953,63.54-50.432c22.924-31.684,36.61-71.306,36.61-105.988
	C466.805,184.128,458.118,158.684,443.354,137.832z M315.836,16.43c58.417,0,106.476,45.177,111.088,102.428
	c-22.944-21.792-53.939-35.183-88.005-35.183c-19.927,0-38.805,4.585-55.634,12.751c-11.599-19.72-27.922-35.586-47.139-46.457
	C257.061,28.543,285.57,16.43,315.836,16.43z M173.081,305.902c-16.092,0-47.62-6.262-77.965-48.204
	c-20.658-28.553-33.491-65.475-33.491-96.357c0-61.458,49.999-111.457,111.456-111.457c39.776,0,75.871,20.76,95.917,54.653
	c-34.878,22.864-57.965,62.297-57.965,107.026c0,22.976,6.012,48.122,16.733,71.691
	C210.445,298.082,191.644,305.902,173.081,305.902z M416.884,307.921c-30.345,41.941-61.872,48.203-77.966,48.203
	c-16.091,0-47.62-6.262-77.965-48.204c-20.658-28.553-33.491-65.475-33.491-96.357c0-61.458,49.998-111.458,111.456-111.458
	c61.457,0,111.456,50,111.456,111.458C450.375,242.445,437.542,279.367,416.884,307.921z"/>
<g>
</g>
<g>
</g>
<g>
</g>
<g>
</g>
<g>
</g>
<g>
</g>
<g>
</g>
<g>
</g>
<g>
</g>
<g>
</g>
<g>
</g>
<g>
</g>
<g>
</g>
<g>
</g>
<g>
</g>
</svg>
