<?xml version="1.0" encoding="iso-8859-1"?>
<!-- Generator: Adobe Illustrator 19.0.0, SVG Export Plug-In . SVG Version: 6.00 Build 0)  -->
<svg version="1.1" id="Layer_1" xmlns="http://www.w3.org/2000/svg" xmlns:xlink="http://www.w3.org/1999/xlink" x="0px" y="0px"
	 viewBox="0 0 501.986 501.986" style="enable-background:new 0 0 501.986 501.986;" xml:space="preserve">
<g>
	<path style="fill:#EB5989;" d="M198.617,290.673c0-20.237-15.236-36.906-34.86-39.187l-27.08,71.617
		c6.379,4.43,14.123,7.034,22.478,7.034C180.949,330.136,198.617,312.468,198.617,290.673z"/>
	<path style="fill:#EB5989;" d="M242.576,169.786c0,21.795,17.668,39.463,39.463,39.463c7.073,0,13.706-1.87,19.447-5.129
		l-27.585-72.953C256.011,134.919,242.576,150.782,242.576,169.786z"/>
	<path style="fill:#EB5989;" d="M293.528,325.64c0,21.795,17.668,39.463,39.463,39.463c9.843,0,18.836-3.612,25.749-9.572
		l-26.221-69.343C310.943,286.443,293.528,304.004,293.528,325.64z"/>
	<g>
		<path style="fill:#FFB86C;" d="M358.74,355.531c-6.912,5.96-15.906,9.572-25.749,9.572c-21.795,0-39.463-17.668-39.463-39.463
			c0-21.637,17.415-39.197,38.991-39.451l-31.033-82.069c-5.741,3.259-12.374,5.129-19.447,5.129
			c-21.795,0-39.463-17.668-39.463-39.463c0-19.004,13.435-34.867,31.325-38.619l-19.702-52.103
			c-3.925,1.485-8.177,2.304-12.622,2.304s-8.697-0.819-12.622-2.304l-65.198,172.421c19.625,2.281,34.86,18.95,34.86,39.187
			c0,21.795-17.668,39.463-39.463,39.463c-8.355,0-16.098-2.604-22.478-7.034l-28.717,75.944h267.235L358.74,355.531z"/>
		<path style="fill:#3B7BC0;" d="M241.577,10c-19.708,0-35.684,15.977-35.684,35.684c0,15.263,9.586,28.281,23.062,33.38
			c3.925,1.485,8.177,2.304,12.622,2.304s8.697-0.819,12.622-2.304c13.477-5.099,23.062-18.117,23.062-33.38
			C277.261,25.977,261.285,10,241.577,10z"/>
	</g>
	<g>
		<path d="M412.042,437.603c-1.325-5.363-6.746-8.637-12.106-7.31c-5.361,1.324-8.635,6.745-7.31,12.106
			c2.967,12.009,0.278,22.813-7.57,30.42c-3.966,3.845-4.064,10.176-0.221,14.141c1.962,2.023,4.57,3.04,7.182,3.04
			c2.507,0,5.018-0.938,6.959-2.819C411.955,474.599,416.718,456.528,412.042,437.603z"/>
		<path d="M375.195,409.047c3.285,0,6.36-1.613,8.228-4.315s2.288-6.149,1.126-9.222l-16.455-43.516l-26.221-69.343l-31.032-82.068
			l-27.586-72.953L266.69,83.821c12.382-8.181,20.572-22.217,20.572-38.137C287.261,20.494,266.767,0,241.577,0
			s-45.685,20.494-45.685,45.685c0,15.919,8.19,29.956,20.573,38.137l-62.062,164.127l-27.081,71.617L98.606,395.51
			c-5.946,15.72-14.174,30.97-8.524,48.382c4.215,12.992,14.833,22.293,31.557,27.646c32.562,10.419,56.409,4.704,77.448-0.34
			c13.504-3.237,26.257-6.289,40.743-5.208c17.516,1.314,35.012,8.903,53.536,16.938c20.957,9.089,42.627,18.488,65.856,19.055
			c0.084,0.002,0.166,0.003,0.249,0.003c5.409,0,9.859-4.318,9.992-9.756c0.135-5.521-4.232-10.106-9.753-10.241
			c-19.335-0.472-38.304-8.699-58.387-17.409c-19.23-8.341-39.116-16.966-59.998-18.532c-17.604-1.322-32.497,2.249-46.901,5.702
			c-20.288,4.863-39.451,9.458-66.691,0.74c-10.226-3.272-16.49-8.228-18.616-14.729c-2.985-9.125,1.665-21.001,5.879-28.712
			h260.199V409.047z M346.619,351.75c-4.179,2.185-8.851,3.354-13.627,3.354c-16.246,0-29.463-13.218-29.463-29.464
			c0-13.743,9.578-25.398,22.407-28.586L346.619,351.75z M268.017,143.882l20.645,54.596c-2.165,0.5-4.386,0.771-6.623,0.771
			c-16.246,0-29.464-13.217-29.464-29.463C252.575,158.814,258.735,148.937,268.017,143.882z M215.892,45.685
			c0-14.162,11.522-25.685,25.685-25.685s25.684,11.522,25.684,25.685c0,7.299-3.065,13.891-7.97,18.572
			c-4.612,4.401-10.85,7.113-17.714,7.113c-6.863,0-13.101-2.711-17.714-7.112C218.958,59.576,215.892,52.983,215.892,45.685z
			 M169.99,263.274c11.002,4.337,18.627,15.055,18.627,27.399c0,16.246-13.217,29.463-29.463,29.463
			c-3.449,0-6.817-0.613-9.998-1.764L169.99,263.274z M142.073,337.104c5.426,2,11.188,3.032,17.081,3.032
			c27.274,0,49.463-22.188,49.463-49.463c0-20.822-12.925-38.901-31.549-46.117L235.167,90.91c2.096,0.296,4.234,0.459,6.41,0.459
			c2.176,0,4.314-0.163,6.41-0.459l12.916,34.159c-16.917,8.042-28.328,25.372-28.328,44.717c0,27.274,22.189,49.463,49.463,49.463
			c4.661,0,9.291-0.663,13.74-1.949l23.053,60.966c-20.369,6.135-35.304,25.131-35.304,47.374c0,27.274,22.189,49.464,49.463,49.464
			c7.21,0,14.28-1.58,20.732-4.563l6.998,18.506H122.431L142.073,337.104z"/>
	</g>
	<path d="M230.983,301c-5.523,0-10-4.478-10-10c0-17.453-7.583-34.012-20.806-45.431c-4.18-3.609-4.642-9.925-1.032-14.104
		c3.609-4.18,9.924-4.643,14.104-1.032c17.625,15.221,27.733,37.297,27.733,60.567C240.983,296.522,236.506,301,230.983,301z"/>
	<path d="M188.989,365.178c-3.855,0-7.527-2.241-9.169-6c-2.211-5.061,0.099-10.956,5.16-13.167
		c11.307-4.939,21.052-13.497,27.438-24.097c2.852-4.73,8.996-6.252,13.727-3.404c4.73,2.851,6.254,8.996,3.404,13.727
		c-8.63,14.322-21.273,25.423-36.562,32.103C191.683,364.907,190.324,365.178,188.989,365.178z"/>
</g>
<g>
</g>
<g>
</g>
<g>
</g>
<g>
</g>
<g>
</g>
<g>
</g>
<g>
</g>
<g>
</g>
<g>
</g>
<g>
</g>
<g>
</g>
<g>
</g>
<g>
</g>
<g>
</g>
<g>
</g>
</svg>
