<?xml version="1.0" encoding="iso-8859-1"?>
<!-- Generator: Adobe Illustrator 19.1.0, SVG Export Plug-In . SVG Version: 6.00 Build 0)  -->
<svg version="1.1" id="Capa_1" xmlns="http://www.w3.org/2000/svg" xmlns:xlink="http://www.w3.org/1999/xlink" x="0px" y="0px"
	 viewBox="0 0 63.5 63.5" style="enable-background:new 0 0 63.5 63.5;" xml:space="preserve">
<g>
	<g id="group-85svg">
		<path id="path-1_82_" style="fill:#FF917B;" d="M25.67,41.539c0,0,2.146-11.814-0.879-21.269
			C21.766,10.816,15.25,5.006,15.25,5.006v36.533V62.5h8v-5h-3V41.515L25.67,41.539z"/>
		<path id="path-2_82_" style="fill:#53ECF4;" d="M52.25,63.5h-9v-26h9V63.5z"/>
		<path id="path-3_82_" style="fill:#EDC951;" d="M51.25,37.5h-7v-10h7V37.5z"/>
		<path id="path-4_82_" style="fill:#EDC951;" d="M50.25,26.5h-5v-8h5V26.5z"/>
		<path id="path-5_80_" d="M20.75,61.5h-8c-0.829,0-1.5-0.672-1.5-1.5V3.006c0-0.594,0.35-1.131,0.893-1.371
			c0.544-0.242,1.177-0.138,1.616,0.261c0.273,0.248,6.724,6.193,9.836,15.917c3.106,9.707,0.894,21.511,0.798,22.009
			c-0.136,0.709-0.728,1.256-1.48,1.217l-3.663-0.018V53.5h1.5c0.829,0,1.5,0.672,1.5,1.5v5C22.25,60.828,21.579,61.5,20.75,61.5z
			 M14.25,58.5h5v-2h-1.5c-0.829,0-1.5-0.672-1.5-1.5V39.514c0-0.399,0.159-0.539,0.442-0.82c0.281-0.28,0.662-0.194,1.058-0.194
			c0.002,0,0.005,0,0.007,0l3.887-0.225c0.462-3.199,1.412-12.182-0.906-19.426c-1.682-5.256-4.463-9.473-6.488-11.974V58.5z"/>
		<path id="path-6_72_" d="M49.75,62.5h-9c-0.829,0-1.5-0.672-1.5-1.5V35c0-0.828,0.671-1.5,1.5-1.5h9c0.829,0,1.5,0.672,1.5,1.5v26
			C51.25,61.828,50.579,62.5,49.75,62.5z M42.25,59.5h6v-23h-6V59.5z"/>
		<path id="path-7_57_" d="M48.75,36.5h-7c-0.829,0-1.5-0.672-1.5-1.5V25c0-0.828,0.671-1.5,1.5-1.5h7c0.829,0,1.5,0.672,1.5,1.5v10
			C50.25,35.828,49.579,36.5,48.75,36.5z M43.25,33.5h4v-7h-4V33.5z"/>
		<path id="path-8_46_" d="M47.75,25.5h-5c-0.829,0-1.5-0.672-1.5-1.5v-8c0-0.828,0.671-1.5,1.5-1.5h5c0.829,0,1.5,0.672,1.5,1.5v8
			C49.25,24.828,48.579,25.5,47.75,25.5z M44.25,22.5h2v-5h-2V22.5z"/>
		<path id="path-9_30_" d="M49.75,17.5h-2.5c-0.829,0-1.5-0.672-1.5-1.5c0-0.828,0.671-1.5,1.5-1.5h1v-13c0-0.828,0.671-1.5,1.5-1.5
			s1.5,0.672,1.5,1.5V16C51.25,16.828,50.579,17.5,49.75,17.5z"/>
		<path id="path-10_22_" d="M43.25,17.5h-2.5c-0.829,0-1.5-0.672-1.5-1.5V1.5c0-0.828,0.671-1.5,1.5-1.5s1.5,0.672,1.5,1.5v13h1
			c0.829,0,1.5,0.672,1.5,1.5C44.75,16.828,44.079,17.5,43.25,17.5z"/>
	</g>
</g>
<g>
</g>
<g>
</g>
<g>
</g>
<g>
</g>
<g>
</g>
<g>
</g>
<g>
</g>
<g>
</g>
<g>
</g>
<g>
</g>
<g>
</g>
<g>
</g>
<g>
</g>
<g>
</g>
<g>
</g>
</svg>
