<?xml version="1.0" encoding="iso-8859-1"?>
<!-- Generator: Adobe Illustrator 19.0.0, SVG Export Plug-In . SVG Version: 6.00 Build 0)  -->
<svg version="1.1" id="Layer_1" xmlns="http://www.w3.org/2000/svg" xmlns:xlink="http://www.w3.org/1999/xlink" x="0px" y="0px"
	 viewBox="0 0 512 512" style="enable-background:new 0 0 512 512;" xml:space="preserve">
<path style="fill:#F95428;" d="M449.54,176.362c12.825,0,23.212,10.387,23.212,23.212c0,12.825-10.387,23.225-23.212,23.225
	s-23.225-10.4-23.225-23.225S436.715,176.362,449.54,176.362z"/>
<path style="fill:#F7B239;" d="M218.753,9.375c99.15,0,179.525,80.375,179.525,179.525c0,54.762-24.525,103.8-63.2,136.737
	c-31.337,26.662-71.95,42.775-116.325,42.775s-84.987-16.112-116.325-42.787C63.766,292.699,39.241,243.662,39.241,188.9
	C39.241,89.75,119.616,9.375,218.753,9.375z"/>
<path style="fill:#E09B2D;" d="M175.55,325.624c-38.662-32.925-63.187-81.962-63.187-136.725
	c0-86.621,61.346-158.907,142.953-175.795c-11.805-2.442-24.032-3.73-36.562-3.73C119.616,9.375,39.241,89.75,39.241,188.9
	c0,54.762,24.525,103.8,63.187,136.725c31.337,26.675,71.95,42.787,116.325,42.787c12.529,0,24.756-1.286,36.561-3.729
	C225.308,358.47,198.041,344.768,175.55,325.624z"/>
<path style="fill:#2BA5F7;" d="M335.078,356.924v124.525c0,11.7-9.487,21.175-21.175,21.175H123.603
	c-11.687,0-21.175-9.475-21.175-21.175v-57.262v-98.562c31.337,26.675,71.95,42.787,116.325,42.787s84.987-16.112,116.325-42.775
	V356.924z M240.953,464.186v-61.862h-101.25v61.862H240.953z"/>
<path style="fill:#2197D8;" d="M143.677,481.449v-57.262v-72.197c-14.974-6.905-28.84-15.802-41.247-26.365v98.562v57.262
	c0,11.7,9.487,21.175,21.175,21.175h41.247C153.165,502.624,143.677,493.149,143.677,481.449z"/>
<rect x="139.7" y="402.324" style="fill:#F95428;" width="101.25" height="61.862"/>
<rect x="139.7" y="402.324" style="fill:#E54728;" width="37.009" height="61.862"/>
<path style="fill:#FFFFFF;" d="M303.828,480.748c-5.179,0-9.375-4.197-9.375-9.375v-89.681c0-5.177,4.196-9.375,9.375-9.375
	s9.375,4.197,9.375,9.375v89.681C313.203,476.55,309.007,480.748,303.828,480.748z"/>
<g>
	<path style="fill:none;stroke:#FFFFFF;stroke-width:15;stroke-linecap:round;stroke-linejoin:round;stroke-miterlimit:10;" d="
		M263.641,47.566c59.885,19.06,103.387,75.209,103.387,141.327c0,61.26-37.345,113.962-90.465,136.536"/>
	
		<line style="fill:none;stroke:#FFFFFF;stroke-width:15;stroke-linecap:round;stroke-linejoin:round;stroke-miterlimit:10;" x1="237.049" y1="41.747" x2="237.049" y2="41.747"/>
</g>
<circle style="fill:#2BA5F7;" cx="218.762" cy="188.9" r="36.015"/>
<line style="fill:none;stroke:#FFFFFF;stroke-width:15;stroke-linecap:round;stroke-linejoin:round;stroke-miterlimit:10;" x1="232.249" y1="190.087" x2="232.249" y2="190.087"/>
<path style="fill:#FFFFFF;" d="M212.336,447.939c-5.179,0-9.375-4.197-9.375-9.375v-9.999c0-5.177,4.196-9.375,9.375-9.375
	c5.179,0,9.375,4.197,9.375,9.375v9.999C221.711,443.741,217.513,447.939,212.336,447.939z"/>
<g>
	<path style="fill:#333333;" d="M218.759,234.283c25.027,0,45.39-20.361,45.39-45.39s-20.361-45.39-45.39-45.39
		s-45.39,20.361-45.39,45.39S193.732,234.283,218.759,234.283z M218.759,162.253c14.689,0,26.64,11.951,26.64,26.64
		s-11.951,26.64-26.64,26.64s-26.64-11.951-26.64-26.64S204.071,162.253,218.759,162.253z"/>
	<path style="fill:#333333;" d="M482.134,199.578c0-17.974-14.622-32.596-32.596-32.596s-32.596,14.622-32.596,32.596
		c0,13.892,8.739,25.776,21.006,30.46c-8.731,59.835-43.23,113.102-93.49,146v-46.276c38.754-34.617,63.196-84.939,63.196-140.868
		C407.653,84.737,322.915,0,218.759,0S29.866,84.737,29.866,188.893c0,55.927,24.44,106.246,63.191,140.863V481.45
		c0,16.845,13.705,30.55,30.55,30.55h190.298c16.846,0,30.55-13.705,30.55-30.55v-83.365
		c60.667-35.296,102.52-96.989,112.257-166.716C471.245,228.089,482.134,215.086,482.134,199.578z M48.616,188.893
		c0-93.817,76.326-170.143,170.143-170.143s170.142,76.326,170.142,170.143s-76.326,170.143-170.142,170.143
		C124.942,359.037,48.616,282.711,48.616,188.893z M325.707,481.45c0,6.506-5.294,11.8-11.8,11.8h-190.3
		c-6.506,0-11.8-5.294-11.8-11.8V344.502c30.43,20.98,67.279,33.285,106.953,33.285c39.671,0,76.519-12.304,106.947-33.281v42.461
		c-3.17,1.635-6.374,3.219-9.642,4.699c-24.117,10.921-39.7,35.022-39.699,61.4v18.954c0,5.177,4.196,9.375,9.375,9.375
		c5.179,0,9.375-4.198,9.375-9.375v-18.955c-0.001-19.032,11.257-36.429,28.682-44.32c0.642-0.291,1.269-0.606,1.907-0.902V481.45z
		 M449.536,213.424c-7.635,0-13.846-6.211-13.846-13.846c0-7.635,6.211-13.846,13.846-13.846c7.635,0,13.846,6.211,13.846,13.846
		C463.383,207.213,457.173,213.424,449.536,213.424z"/>
	<path style="fill:#333333;" d="M240.947,392.944H139.702c-5.179,0-9.375,4.198-9.375,9.375v61.872c0,5.177,4.196,9.375,9.375,9.375
		h101.245c5.179,0,9.375-4.198,9.375-9.375v-61.872C250.322,397.142,246.126,392.944,240.947,392.944z M231.572,454.815h-82.495
		v-43.122h82.495V454.815z"/>
</g>
<g>
</g>
<g>
</g>
<g>
</g>
<g>
</g>
<g>
</g>
<g>
</g>
<g>
</g>
<g>
</g>
<g>
</g>
<g>
</g>
<g>
</g>
<g>
</g>
<g>
</g>
<g>
</g>
<g>
</g>
</svg>
